<svg xmlns="http://www.w3.org/2000/svg" viewBox="0 0 983.91 163.85"><defs><style>.cls-1{fill:#fd5f20;}</style></defs><title>Asset 15</title><g id="Layer_2" data-name="Layer 2"><g id="Layer_1-2" data-name="Layer 1"><path class="cls-1" d="M108.05,91.38a28.36,28.36,0,0,0-5-7.64h0v0l-.42-.44h0l-.47-.48,0,0-.5-.48A30.69,30.69,0,0,0,92,76.13l-.69-.27h0l-.65-.24-.14,0-.55-.18-.19-.06c-.17,0-.33-.11-.5-.15L89,75.1,88.53,75l-.26-.07-.44-.11-.29-.07-.42-.1-.32-.06-.4-.08-.33-.06-.39-.07-.36-.06L85,74.23l-.38,0-.35,0-.4,0-.34,0-.41,0-.34,0-.42,0L82,74l-.43,0H80.24a30.36,30.36,0,0,0-26,14.19,26.49,26.49,0,0,0-4.06,14.37c0,.33,0,.66,0,1h0c0,.37,0,.73,0,1.1A15.93,15.93,0,0,0,52,112.3h0c.17.42.34.85.53,1.26l.09.19.24.5.15.3c.06.13.13.27.2.4s.1.2.16.3.13.26.2.39.11.19.17.29l.23.4a2.26,2.26,0,0,0,.16.26,4.94,4.94,0,0,0,.3.49,1.4,1.4,0,0,0,.1.16l.42.64.11.16.33.47.16.22.31.41a1,1,0,0,1,.08.11H50.2V135H72.42v28.84H88.18V135h21.45V119.25h-5l0,0,.2-.28.33-.44.18-.25.34-.49.15-.22.47-.73,0-.08.22-.37a1.74,1.74,0,0,0,.11-.18l.17-.28a2,2,0,0,1,.11-.2l.15-.28a1.14,1.14,0,0,0,.1-.19l.18-.33s0-.09.07-.14.16-.3.23-.46a1,1,0,0,0,.07-.15c.06-.11.11-.22.16-.33l.08-.18c0-.1.1-.21.14-.31l.08-.18.15-.35a.5.5,0,0,1,0-.13l.2-.5v0c.06-.15.11-.31.17-.46a.65.65,0,0,0,0-.13l.14-.39,0-.13.14-.42,0-.08c.11-.36.21-.72.31-1.08h0c0-.17.09-.35.13-.53v0c.14-.62.27-1.24.37-1.86v-.07c.07-.43.13-.87.17-1.31v-.08c0-.44.09-.88.11-1.33v-.06c0-.46,0-.92,0-1.39h0v-.3A26.67,26.67,0,0,0,108.05,91.38ZM92.69,108.85a14.11,14.11,0,0,1-5.22,4.66,15.91,15.91,0,0,1-14.31.08A13.63,13.63,0,0,1,67.93,109a11.86,11.86,0,0,1-1-11.22l.15-.35.06-.12c.05-.1.1-.2.16-.3a.91.91,0,0,1,.07-.14c0-.1.11-.2.17-.3a.75.75,0,0,1,.07-.12l.25-.41A13.75,13.75,0,0,1,73,91.41a5.06,5.06,0,0,1,.46-.24,15.28,15.28,0,0,1,6.82-1.51,16.46,16.46,0,0,1,2.93.26,14.86,14.86,0,0,1,4.21,1.43A14.1,14.1,0,0,1,92.63,96l0,0,.21.32.08.12c0,.08.09.15.14.23a1.09,1.09,0,0,0,.08.15l.12.21a1.09,1.09,0,0,0,.08.15l.1.21a.8.8,0,0,1,.08.16l.1.21.07.15a2.44,2.44,0,0,0,.1.24.69.69,0,0,0,0,.13,11.36,11.36,0,0,1,.77,4.21A11.23,11.23,0,0,1,92.69,108.85Z"/><path class="cls-1" d="M37.4,76.65a28.3,28.3,0,0,0,9,1.84h0l.6,0h1.42a30.83,30.83,0,0,0,11.13-2.44l.67-.3h0l.62-.29L61,75.4l.52-.26.18-.09.46-.24.22-.12.42-.24.23-.14.39-.23.26-.16.36-.22.27-.18.34-.23.28-.19.32-.22.29-.22.3-.22a3.55,3.55,0,0,0,.31-.23l.28-.22.31-.24.27-.22.31-.27.26-.21c.1-.1.21-.19.32-.28l.24-.22.32-.29.24-.23.32-.3.11-.11,0,0,0,0,.22-.22a30.29,30.29,0,0,0,8.34-28.41,26.51,26.51,0,0,0-7.29-13q-.34-.36-.72-.69v0L69,26.42a16,16,0,0,0-6.74-4.19h0c-.42-.18-.85-.36-1.28-.52l-.19-.07-.52-.19-.32-.1-.42-.14-.33-.1L58.76,21l-.32-.09L58,20.77l-.29-.07-.56-.13L57,20.52l-.75-.15-.19,0-.57-.09-.26,0-.51-.07-.13,0L58.6,16,47.46,4.89,31.75,20.6,11.14,0,0,11.14,20.6,31.75,5.43,46.91,16.58,58.06l3.52-3.52v0c0,.12,0,.23,0,.34s.05.36.08.54,0,.21.05.31.07.39.11.59,0,.18.05.26l.18.85a.29.29,0,0,1,0,.09c0,.14.07.28.11.42a1.6,1.6,0,0,0,.05.21c0,.1.05.21.08.31l.06.22L21,59l.06.2c0,.12.07.24.11.36l.05.15.16.49.06.15.12.35.07.18.12.32a1.34,1.34,0,0,1,.07.18l.15.36s0,.09.05.13.14.33.22.49v0l.21.44.06.12.18.37.06.13.2.39,0,.08c.18.33.36.65.55,1h0c.1.16.19.32.29.47l0,0c.33.53.68,1.06,1.06,1.57l0,0c.26.36.53.71.81,1.06l.05.06c.28.34.56.69.86,1l0,0c.31.34.62.68,1,1h0c.07.07.13.14.2.2A26.49,26.49,0,0,0,37.4,76.65ZM35.91,53.43a14,14,0,0,1,.4-7A15.94,15.94,0,0,1,46.37,36.27a13.62,13.62,0,0,1,6.92-.46,11.38,11.38,0,0,1,6,3.25A11.5,11.5,0,0,1,62,43c0,.12.09.24.13.36s0,.08.05.13.07.21.1.32,0,.1.05.15l.09.33,0,.13c0,.16.07.31.11.47a13.69,13.69,0,0,1-.33,6.91l-.15.49a15.32,15.32,0,0,1-3.76,5.89A17.21,17.21,0,0,1,56,60.09a15.11,15.11,0,0,1-4,2,14.16,14.16,0,0,1-7,.47h0l-.37-.07-.14,0-.26-.06-.16,0-.23-.07-.17,0-.22-.07-.17-.06L43.1,62l-.16-.06-.23-.1-.14-.06a11.33,11.33,0,0,1-3.51-2.42A11.18,11.18,0,0,1,35.91,53.43Z"/><path class="cls-1" d="M133.34,70.47a1.89,1.89,0,0,0,.2-.2h0c.33-.33.64-.67.95-1l0,0c.3-.33.59-.68.87-1l0-.06c.28-.35.55-.7.81-1.06l0,0c.37-.51.72-1,1.05-1.57l0,0c.1-.15.2-.31.29-.47h0c.19-.32.37-.64.55-1l0-.08c.07-.13.14-.26.2-.39l.06-.13a2.53,2.53,0,0,0,.18-.37l.06-.12.21-.44,0,0,.21-.49a.69.69,0,0,0,.05-.13l.15-.36.07-.18.12-.32a1.34,1.34,0,0,0,.07-.18c0-.12.08-.23.13-.35a.88.88,0,0,1,.05-.15c.06-.16.11-.33.16-.49a.88.88,0,0,0,.05-.15c0-.12.08-.24.11-.36l.06-.2.09-.31.06-.22c0-.1.06-.21.08-.31l.06-.21c0-.14.07-.28.1-.42s0-.06,0-.09c.07-.28.12-.56.18-.85a2,2,0,0,0,.05-.26c0-.2.08-.39.11-.59s0-.2.05-.31.06-.36.08-.54,0-.22.05-.34v0l3.52,3.52,11.15-11.15L140.65,31.75l20.43-20.44L149.94.17,129.51,20.6,113.8,4.89,102.65,16l4.07,4.06-.14,0-.5.07-.27,0-.57.09-.19,0-.75.15-.19.05-.55.13-.3.07-.45.12-.32.09-.42.13-.33.1-.42.14-.32.1-.51.19-.2.07c-.43.16-.86.34-1.28.52h0a16,16,0,0,0-6.74,4.19l-.76.78v0q-.36.33-.72.69a26.51,26.51,0,0,0-7.29,13,30.29,30.29,0,0,0,8.34,28.41l.22.22,0,0,0,0,.12.11.31.3.24.23.32.29.25.22.31.28.26.21.32.27.26.22.31.24.29.22.3.23.3.22.29.22.32.22.28.19.34.23.27.18.36.22.26.16.39.23.23.14.43.24.21.12.46.24.18.09.52.26.13.07.62.29h0l.67.3a30.83,30.83,0,0,0,11.13,2.44h1.42l.6,0h.05a28.24,28.24,0,0,0,8.95-1.84A26.49,26.49,0,0,0,133.34,70.47ZM122.2,59.33a11.49,11.49,0,0,1-3.52,2.42l-.14.06-.23.1-.16.06-.22.08-.17.06-.22.07-.16,0-.24.07-.16,0-.26.06-.14,0-.37.07h0a14.16,14.16,0,0,1-7-.47,14.9,14.9,0,0,1-4-2A17.29,17.29,0,0,1,103,58.2a15.3,15.3,0,0,1-3.75-5.89c-.06-.16-.11-.33-.16-.49a13.8,13.8,0,0,1-.33-6.91l.12-.47,0-.13L99,44l0-.15a3,3,0,0,1,.11-.32.5.5,0,0,1,0-.13L99.3,43a11.65,11.65,0,0,1,2.62-4,11.41,11.41,0,0,1,6-3.25,13.67,13.67,0,0,1,6.93.46,15.37,15.37,0,0,1,6.18,3.84,15.22,15.22,0,0,1,3.87,6.34,14.11,14.11,0,0,1,.41,7A11.32,11.32,0,0,1,122.2,59.33Z"/><path class="cls-1" d="M282.14,67.73h22.18v62.51H282.14v-7q-7.06,8.91-19.13,8.9a31,31,0,0,1-12.55-2.5,30.08,30.08,0,0,1-10-7,32,32,0,0,1-6.64-10.6,36.12,36.12,0,0,1-2.38-13.28,35.06,35.06,0,0,1,2.32-12.73,32.54,32.54,0,0,1,6.45-10.54,30.4,30.4,0,0,1,9.88-7.13,30,30,0,0,1,12.67-2.62,25.44,25.44,0,0,1,19.37,8.16ZM254.36,98.8A14.63,14.63,0,0,0,258.44,109a13.35,13.35,0,0,0,4.51,3,14.58,14.58,0,0,0,5.67,1.1,14.23,14.23,0,0,0,5.54-1.1,13.35,13.35,0,0,0,4.51-3,16,16,0,0,0,3.05-4.51A13.21,13.21,0,0,0,282.87,99a13.58,13.58,0,0,0-1.15-5.54,15.62,15.62,0,0,0-3.05-4.57,13.52,13.52,0,0,0-4.51-3.05,14.22,14.22,0,0,0-5.54-1.09A14.58,14.58,0,0,0,263,85.88a13.52,13.52,0,0,0-4.51,3.05,14.92,14.92,0,0,0-3,4.45A13.33,13.33,0,0,0,254.36,98.8Z"/><path class="cls-1" d="M343.93,86.13v44.11H321.87V86.13h-7.31V67.73h7.31V49h22.06V67.73h12.55v18.4Z"/><path class="cls-1" d="M363.42,98.44a30.37,30.37,0,0,1,2.8-13A31.87,31.87,0,0,1,374,75a37.06,37.06,0,0,1,11.88-7A42.8,42.8,0,0,1,401,65.41a43.6,43.6,0,0,1,14.93,2.5,36.93,36.93,0,0,1,11.94,7,31.16,31.16,0,0,1,7.86,10.6A32.35,32.35,0,0,1,438.48,99a31.79,31.79,0,0,1-2.86,13.59,32.14,32.14,0,0,1-7.86,10.6,35.21,35.21,0,0,1-12,6.89,46,46,0,0,1-15.17,2.44,44,44,0,0,1-14.87-2.44,34.33,34.33,0,0,1-11.76-7,32.22,32.22,0,0,1-7.74-10.78A33.82,33.82,0,0,1,363.42,98.44Zm23.27.24a14.22,14.22,0,0,0,1.16,5.79,15.56,15.56,0,0,0,3,4.57,13.35,13.35,0,0,0,4.51,3,14.53,14.53,0,0,0,11.09,0,13.4,13.4,0,0,0,4.5-3,15.56,15.56,0,0,0,3.05-4.57,13.92,13.92,0,0,0,1.16-5.67,13.55,13.55,0,0,0-1.16-5.54A15.43,15.43,0,0,0,411,88.69a13.43,13.43,0,0,0-4.5-3,14.53,14.53,0,0,0-11.09,0,13.37,13.37,0,0,0-4.51,3,15.66,15.66,0,0,0-3,4.51A13.14,13.14,0,0,0,386.69,98.68Z"/><path class="cls-1" d="M521.22,88a20.42,20.42,0,0,0-11.58-3.9,15.8,15.8,0,0,0-5.91,1.09,14.6,14.6,0,0,0-4.81,3.11A14.1,14.1,0,0,0,495.69,93a15.55,15.55,0,0,0-1.16,6.16,15.22,15.22,0,0,0,1.16,6,14.71,14.71,0,0,0,3.17,4.75,13.82,13.82,0,0,0,4.81,3.11,16.27,16.27,0,0,0,6,1.1,18.29,18.29,0,0,0,11.58-4.27v18.77a39.13,39.13,0,0,1-15.48,3.53,36.66,36.66,0,0,1-13-2.31,32.89,32.89,0,0,1-10.84-6.65,32.55,32.55,0,0,1-7.5-10.35,31.59,31.59,0,0,1-2.8-13.47,33.67,33.67,0,0,1,2.68-13.59,32.76,32.76,0,0,1,7.31-10.6,33.16,33.16,0,0,1,11-6.94,37.3,37.3,0,0,1,13.71-2.5,32.85,32.85,0,0,1,14.87,3.41Z"/><path class="cls-1" d="M533.77,67.73h22.05V78a25.38,25.38,0,0,1,8.66-8.59,23.26,23.26,0,0,1,11.94-3h1.89a13.57,13.57,0,0,1,2.37.24V87.71a21,21,0,0,0-9.5-2.19q-7.68,0-11.52,4.57t-3.84,13.34v26.81H533.77Z"/><path class="cls-1" d="M611.15,102.7q0,14.26,13.4,14.26a12,12,0,0,0,10.85-5.85h21.32q-6.47,21.45-32.29,21.45a42.49,42.49,0,0,1-14.5-2.38,32.41,32.41,0,0,1-11.27-6.76,30.26,30.26,0,0,1-7.26-10.48,35,35,0,0,1-2.55-13.65,38.76,38.76,0,0,1,2.43-14.08,29.69,29.69,0,0,1,7-10.66,30.74,30.74,0,0,1,10.9-6.76,41.14,41.14,0,0,1,14.44-2.38,40.2,40.2,0,0,1,14.26,2.38,28.89,28.89,0,0,1,10.73,6.88,30.16,30.16,0,0,1,6.7,11,43.78,43.78,0,0,1,2.31,14.68v2.32ZM637,89.91a13.3,13.3,0,0,0-4.51-7.44,14,14,0,0,0-16.63-.12,12.13,12.13,0,0,0-4.09,7.56Z"/><path class="cls-1" d="M718.38,67.73h22.18v62.51H718.38v-7q-7.07,8.91-19.13,8.9a30.94,30.94,0,0,1-12.55-2.5,30.22,30.22,0,0,1-10-7,32.34,32.34,0,0,1-6.64-10.6,36.32,36.32,0,0,1-2.37-13.28A35.26,35.26,0,0,1,670,86.07a32.56,32.56,0,0,1,6.46-10.54A30,30,0,0,1,699,65.78a25.48,25.48,0,0,1,19.38,8.16ZM690.6,98.8A14.52,14.52,0,0,0,694.68,109a13.35,13.35,0,0,0,4.51,3,14.5,14.5,0,0,0,5.66,1.1,14.28,14.28,0,0,0,5.55-1.1,13.45,13.45,0,0,0,4.51-3,15.77,15.77,0,0,0,3-4.51A13.06,13.06,0,0,0,719.11,99,13.43,13.43,0,0,0,718,93.5a15.4,15.4,0,0,0-3-4.57,13.62,13.62,0,0,0-4.51-3.05,14.27,14.27,0,0,0-5.55-1.09,14.49,14.49,0,0,0-5.66,1.09,13.52,13.52,0,0,0-4.51,3.05,15,15,0,0,0-3,4.45A13.32,13.32,0,0,0,690.6,98.8Z"/><path class="cls-1" d="M780.16,86.13v44.11H758.1V86.13h-7.31V67.73h7.31V49h22.06V67.73h12.55v18.4Z"/><path class="cls-1" d="M801.24,43.72a12,12,0,0,1,1-4.81,12.69,12.69,0,0,1,2.69-4,12.43,12.43,0,0,1,4-2.68,12.29,12.29,0,0,1,9.62,0,12.63,12.63,0,0,1,6.64,6.64,12.29,12.29,0,0,1,0,9.62,12.43,12.43,0,0,1-2.68,4,12.57,12.57,0,0,1-4,2.69,12.41,12.41,0,0,1-9.62,0,12.76,12.76,0,0,1-6.65-6.65A12,12,0,0,1,801.24,43.72Zm23.52,24v62.51H802.7V67.73Z"/><path class="cls-1" d="M858.39,67.73l14.87,32.05,15.11-32H913l-32.53,62.51H865.7L833.53,67.73Z"/><path class="cls-1" d="M937.48,102.7q0,14.26,13.4,14.26a12,12,0,0,0,10.85-5.85h21.32q-6.46,21.45-32.29,21.45a42.53,42.53,0,0,1-14.5-2.38A32.41,32.41,0,0,1,925,123.42a30.1,30.1,0,0,1-7.25-10.48,34.85,34.85,0,0,1-2.56-13.65,38.76,38.76,0,0,1,2.43-14.08,29.69,29.69,0,0,1,6.95-10.66,30.69,30.69,0,0,1,10.91-6.76,41.07,41.07,0,0,1,14.44-2.38,40.18,40.18,0,0,1,14.25,2.38,28.89,28.89,0,0,1,10.73,6.88,30.16,30.16,0,0,1,6.7,11,43.77,43.77,0,0,1,2.32,14.68v2.32Zm25.83-12.79a13.3,13.3,0,0,0-4.51-7.44,14,14,0,0,0-16.63-.12,12.08,12.08,0,0,0-4.08,7.56Z"/></g></g></svg>